Coordinates
version=1
nRows=17
nColumns=24
inDegrees=yes

Units are S.I. units (second, meters, Newtons, ...)
If the header above contains a line with 'inDegrees', this indicates whether rotational values are in degrees (yes) or radians (no).

endheader
time	pelvis_tilt	pelvis_list	pelvis_rotation	pelvis_tx	pelvis_ty	pelvis_tz	hip_flexion_r	hip_adduction_r	hip_rotation_r	knee_angle_r	ankle_angle_r	subtalar_angle_r	mtp_angle_r	hip_flexion_l	hip_adduction_l	hip_rotation_l	knee_angle_l	ankle_angle_l	subtalar_angle_l	mtp_angle_l	lumbar_extension	lumbar_bending	lumbar_rotation
      3.34000000	     10.94582201	      1.97221189	   -179.68107982	      0.27327735	      0.77210301	     -1.21317399	     40.62703892	    -20.28577056	    -23.63419089	    -53.31053374	     16.52459743	      7.67225429	      0.00000000	     41.98003875	    -25.49292830	    -20.52259804	    -52.82730148	     15.76749508	     13.28898088	      0.00000000	     -6.03753735	      1.71514247	      1.34409443
      3.34500000	     10.85595205	      2.00760478	   -179.70073673	      0.27235583	      0.77593312	     -1.21345646	     39.84337807	    -19.97710970	    -23.91525913	    -52.12535966	     16.01523290	      7.69327769	      0.00000000	     41.17416761	    -25.31595051	    -20.80032107	    -51.63788122	     15.20780167	     13.22755528	      0.00000000	     -6.02016701	      1.71533503	      1.29006041
      3.35000000	     10.97685065	      1.97968997	   -179.71238047	      0.27154559	      0.77942340	     -1.21323489	     39.30356559	    -19.77730953	    -24.16283615	    -50.92601543	     15.42945782	      7.78060187	      0.00000000	     40.59306664	    -25.02164001	    -21.08378280	    -50.46858576	     14.67962047	     13.14419873	      0.00000000	     -5.75791822	      1.70665065	      1.23722934
      3.35500000	     11.00462603	      1.95747833	   -179.73173332	      0.27064718	      0.78298622	     -1.21314977	     38.65115456	    -19.54621938	    -24.40906197	    -49.70575027	     14.85687432	      7.84811632	      0.00000000	     39.89816430	    -24.75002967	    -21.37786348	    -49.28279984	     14.13410288	     13.05505717	      0.00000000	     -5.60055736	      1.69985190	      1.16374229
      3.36000000	     11.04559037	      1.93952462	   -179.74688195	      0.26975825	      0.78641864	     -1.21307592	     38.02237644	    -19.30540220	    -24.63208536	    -48.50123236	     14.31128622	      7.88965901	      0.00000000	     39.23350195	    -24.48067060	    -21.66001574	    -48.11131913	     13.59866839	     12.97652512	      0.00000000	     -5.42416320	      1.68580992	      1.10623119
      3.36500000	     11.00161296	      1.91866995	   -179.74658147	      0.26887295	      0.78982322	     -1.21312471	     37.31966644	    -19.08641162	    -24.91157918	    -47.34544260	     13.79880120	      7.93906842	      0.00000000	     38.49973954	    -24.21019806	    -21.90884767	    -46.95167419	     13.05144171	     12.89177224	      0.00000000	     -5.35307996	      1.64596552	      1.03722775
      3.37000000	     11.01984352	      1.88825686	   -179.75927753	      0.26793475	      0.79312094	     -1.21299595	     36.69214139	    -18.88257642	    -25.16212825	    -46.19069364	     13.26991336	      7.99473675	      0.00000000	     37.81613351	    -23.92556950	    -22.18753665	    -45.78573276	     12.48466748	     12.77500331	      0.00000000	     -5.20306759	      1.62401857	      0.97670855
      3.37500000	     11.09267692	      1.91236891	   -179.80787270	      0.26694297	      0.79639158	     -1.21285908	     36.09221509	    -18.58855277	    -25.40065735	    -44.96557363	     12.69712465	      8.05328419	      0.00000000	     37.19268240	    -23.70025892	    -22.44944138	    -44.62100145	     11.95798091	     12.67840056	      0.00000000	     -4.98022712	      1.68163533	      0.93991682
      3.38000000	     11.12158558	      1.92852098	   -179.80394631	      0.26606660	      0.79951694	     -1.21287795	     35.45822929	    -18.31277147	    -25.64157815	    -43.77100055	     12.14395546	      8.09735230	      0.00000000	     36.56455965	    -23.45627693	    -22.66566954	    -43.46889312	     11.41883160	     12.59932504	      0.00000000	     -4.82415180	      1.69008563	      0.85305724
      3.38500000	     11.13227081	      1.91263864	   -179.77763746	      0.26510797	      0.80260338	     -1.21283935	     34.79683790	    -18.07623237	    -25.87340123	    -42.56935896	     11.57552644	      8.13927531	      0.00000000	     35.91089941	    -23.15915848	    -22.86512731	    -42.30580313	     10.89375309	     12.52133589	      0.00000000	     -4.68021346	      1.67523237	      0.69869920
      3.39000000	     11.15158995	      1.91982342	   -179.79717433	      0.26419114	      0.80552513	     -1.21282410	     34.18406029	    -17.80559536	    -26.08467911	    -41.41439090	     11.03505397	      8.19187082	      0.00000000	     35.27430883	    -22.91677416	    -23.08642177	    -41.18063164	     10.37597861	     12.44319876	      0.00000000	     -4.52353874	      1.67802426	      0.64590836
      3.39500000	     11.16611683	      1.90411340	   -179.80915664	      0.26326097	      0.80838142	     -1.21272365	     33.57687418	    -17.57379226	    -26.30388230	    -40.28076081	     10.50798257	      8.25237582	      0.00000000	     34.63328516	    -22.65158953	    -23.33328553	    -40.06162083	      9.83469025	     12.35693701	      0.00000000	     -4.37156071	      1.66965740	      0.59341235
      3.40000000	     11.15284229	      1.87710175	   -179.82483232	      0.26223445	      0.81112522	     -1.21253230	     32.94641816	    -17.36098008	    -26.50230483	    -39.17033689	     10.01211283	      8.31666597	      0.00000000	     33.95219983	    -22.35147726	    -23.54304611	    -38.94370805	      9.32072910	     12.18774852	      0.00000000	     -4.24382537	      1.67581468	      0.51173586
      3.40500000	     11.17122673	      1.86262186	   -179.83181479	      0.26138381	      0.81375911	     -1.21247670	     32.35973282	    -17.12496863	    -26.69329854	    -38.05825764	      9.49196856	      8.39773220	      0.00000000	     33.34210844	    -22.07092108	    -23.71501103	    -37.84045142	      8.79568060	     12.03512030	      0.00000000	     -4.09003056	      1.65669109	      0.46266396
      3.41000000	     11.15156339	      1.83196364	   -179.83422087	      0.26038921	      0.81629131	     -1.21239000	     31.73164984	    -16.90964264	    -26.87151187	    -36.96063335	      8.99658136	      8.47709305	      0.00000000	     32.69059646	    -21.79018585	    -23.93561952	    -36.77249316	      8.29867837	     11.93179819	      0.00000000	     -3.97051034	      1.63982907	      0.36813885
      3.41500000	     11.13119412	      1.80096779	   -179.77975713	      0.25958217	      0.81873588	     -1.21238553	     31.11139538	    -16.70553380	    -27.06650566	    -35.87546230	      8.50905130	      8.51397785	      0.00000000	     32.08910206	    -21.48833294	    -24.08973589	    -35.71290483	      7.81141456	     11.86045561	      0.00000000	     -3.86266638	      1.58275233	      0.27440244
      3.42000000	     11.12527578	      1.79379396	   -179.77402589	      0.25865602	      0.82103704	     -1.21232498	     30.52928848	    -16.47983982	    -27.26120332	    -34.83448668	      8.03408420	      8.58342080	      0.00000000	     31.50446374	    -21.23868446	    -24.26297485	    -34.69928986	      7.32508802	     11.74136743	      0.00000000	     -3.73383005	      1.58425770	      0.19079091
